<?xml version="1.0" encoding="utf-8"?>
<!-- Generator: Adobe Illustrator 27.4.1, SVG Export Plug-In . SVG Version: 6.00 Build 0)  -->
<svg version="1.1" id="Calque_1" xmlns="http://www.w3.org/2000/svg" xmlns:xlink="http://www.w3.org/1999/xlink" x="0px" y="0px"
	 viewBox="0 0 805.2 850.4" style="enable-background:new 0 0 805.2 850.4;" xml:space="preserve">
<style type="text/css">
	.st0{fill:#E43835;}
	.st1{fill:#2D2D2D;}
	.st2{opacity:0.5;fill:url(#SVGID_1_);enable-background:new    ;}
	.st3{opacity:0.5;fill:url(#SVGID_00000038412764926754505150000007104094739951956395_);enable-background:new    ;}
	.st4{opacity:0.7;fill:url(#SVGID_00000145026611881836790390000009456714524489516725_);enable-background:new    ;}
	.st5{opacity:0.5;fill:url(#SVGID_00000042001215566019435170000005892112549680397469_);enable-background:new    ;}
	.st6{opacity:0.5;fill:url(#SVGID_00000007424567399639782230000015377682325716501937_);enable-background:new    ;}
</style>
<g>
	<g>
		<path class="st0" d="M57,262.2l-24.1-26.7l6.2-11.6l31.6,37.2l-7.1,13.3l-48.5-5.5l6.2-11.7L57,262.2z"/>
		<path class="st0" d="M68.8,185.7c3.7-1.9,7.6-2.7,11.8-2.4c4.1,0.3,8.1,1.9,11.9,4.7s6.5,6.1,8.1,9.9c1.5,3.8,2,7.8,1.3,11.9
			c-0.7,4.2-2.5,8.1-5.2,12c-2.8,3.8-6.1,6.7-9.8,8.6c-3.7,1.9-7.7,2.7-11.8,2.4c-4.1-0.3-8.1-1.9-11.9-4.7c-3.8-2.8-6.5-6.1-8.1-10
			c-1.6-3.8-2-7.8-1.3-11.9c0.7-4.1,2.5-8.1,5.3-11.9C61.9,190.5,65.1,187.6,68.8,185.7z M64.7,209.3c0.4,3.3,2.4,6.2,5.8,8.7
			c3.5,2.6,6.8,3.5,10.1,2.9c3.2-0.6,5.9-2.3,7.9-5.1s2.8-5.8,2.4-9.1s-2.4-6.2-5.8-8.7c-3.5-2.6-6.8-3.5-10.1-2.9
			c-3.2,0.6-5.9,2.3-7.9,5.1S64.3,206,64.7,209.3z"/>
		<path class="st0" d="M127.5,169.5l7.2,6.8l-4.4,4.7c-3.7,4-7.4,6.2-11.2,6.6c-3.8,0.4-7.8-1.3-11.9-5.2L92.8,169l-4.6,4.9
			l-7.1-6.7l4.6-4.9l-8.2-7.7l8.4-9l8.2,7.7l7.4-7.9l7.1,6.7l-7.4,7.9l14.5,13.5c1.6,1.5,3,2.2,4.3,2.1c1.3-0.1,2.7-0.9,4.2-2.6
			L127.5,169.5z"/>
		<path class="st0" d="M126.8,124.6c1.1-3.2,3.1-6.1,5.8-8.5l8.2,9.3l-2.7,2.4c-6.8,6-7.5,12-2.3,17.8l14.5,16.4l-9.2,8.2l-30.2-34
			l9.2-8.2l5.8,6.5C125.4,131.1,125.7,127.8,126.8,124.6z"/>
		<path class="st0" d="M193.8,103.5l-29.2,20.3c2.5,3.2,5.1,5,8,5.3s5.6-0.4,8.3-2.2c2.3-1.6,3.9-3.5,4.7-5.7s0.8-4.3-0.1-6.4
			l10.7-7.4c1.3,3,1.8,6.1,1.5,9.3c-0.3,3.3-1.4,6.4-3.3,9.5c-1.9,3.1-4.5,5.7-7.8,8c-3.9,2.7-7.9,4.3-12,4.9c-4.1,0.6-8,0-11.7-1.7
			s-6.9-4.5-9.6-8.4c-2.7-3.9-4.2-7.9-4.6-11.9c-0.3-4.1,0.5-7.9,2.4-11.5c2-3.6,4.9-6.8,8.8-9.5c3.9-2.7,7.9-4.4,11.9-4.9
			s7.7,0,11.2,1.5c3.5,1.6,6.4,4,8.7,7.4C192.5,100.9,193.2,102.1,193.8,103.5z M173.7,101c-2.9-0.3-5.7,0.5-8.4,2.4
			s-4.5,4.3-5.3,7.2c-0.8,2.9-0.2,5.9,1.7,9.1l19.3-13.4C179,103,176.6,101.3,173.7,101z"/>
		<path class="st0" d="M240,55c3.4,0.5,6.3,1.9,8.6,4.2l-3.8-8.6l11.2-4.9l18.1,41.6l-11.2,4.9l-3.8-8.7c0.1,3.3-0.8,6.4-2.8,9.2
			c-1.9,2.8-4.8,5.1-8.5,6.7s-7.5,2.2-11.2,1.8c-3.7-0.4-7.2-1.8-10.2-4.3c-3.1-2.5-5.6-5.9-7.5-10.3s-2.7-8.5-2.4-12.5
			s1.6-7.5,3.8-10.5c2.3-3,5.3-5.3,9-7C233,55.1,236.6,54.5,240,55z M229.7,71.4c-1.2,3.1-1,6.5,0.6,10.3s4,6.2,7.1,7.4
			c3.1,1.2,6.4,1,9.9-0.5c3.4-1.5,5.8-3.8,7.1-7c1.3-3.1,1.1-6.5-0.5-10.2s-4-6.2-7.2-7.4s-6.5-1.1-9.9,0.4
			C233.3,66,230.9,68.3,229.7,71.4z"/>
		<path class="st0" d="M302.3,34.3c3.3,1,5.9,2.8,7.9,5.5l-2.4-9.1l11.9-3.1l11.6,44.1c1.1,4.1,1.2,8,0.3,11.7
			c-0.9,3.7-2.8,6.9-5.7,9.7c-2.9,2.7-6.8,4.8-11.7,6c-6.8,1.8-12.7,1.7-17.6-0.2c-5-1.9-8.6-5.3-10.9-10.3l11.8-3.1
			c1.3,2,3,3.4,5.3,4.2c2.3,0.7,4.9,0.7,8-0.1c3.5-0.9,6.1-2.6,7.7-5.1s1.9-5.7,0.9-9.6l-2.5-9.4c-0.4,3.3-1.8,6.2-4.2,8.7
			c-2.4,2.5-5.5,4.3-9.5,5.3s-7.7,1.1-11.4,0.1c-3.6-1-6.8-2.9-9.5-5.9c-2.7-2.9-4.6-6.7-5.8-11.3c-1.2-4.6-1.4-8.8-0.5-12.7
			s2.7-7.1,5.4-9.8c2.7-2.6,6-4.5,10-5.5C295.4,33.3,299.1,33.3,302.3,34.3z M289.7,48.9c-1.7,2.9-2,6.3-0.9,10.2c1,4,3,6.8,5.8,8.4
			c2.8,1.7,6.1,2,9.9,1c3.6-0.9,6.3-2.9,8-5.8s2.1-6.3,1.1-10.2s-3-6.7-6-8.4c-2.9-1.7-6.2-2.1-9.8-1.1
			C294,44.1,291.3,46.1,289.7,48.9z"/>
		<path class="st0" d="M385,44.3l-35.4,3.9c0.6,4,2.1,6.8,4.5,8.5s5.1,2.3,8.3,2c2.8-0.3,5.1-1.2,6.9-2.7c1.7-1.5,2.8-3.4,3-5.7
			l13-1.4c-0.3,3.2-1.3,6.2-3.2,8.9c-1.8,2.7-4.3,5-7.4,6.7c-3.1,1.8-6.7,2.9-10.7,3.3c-4.7,0.5-9,0-12.8-1.4
			c-3.9-1.5-7-3.8-9.4-7.1s-3.9-7.2-4.4-12c-0.5-4.7,0.1-9,1.7-12.7s4.2-6.7,7.7-9c3.5-2.2,7.5-3.6,12.2-4.1c4.8-0.5,9-0.1,12.8,1.4
			s6.8,3.7,9.1,6.7c2.3,3,3.7,6.6,4.1,10.7C385.1,41.5,385.1,42.8,385,44.3z M368.5,32.5c-2.4-1.7-5.3-2.3-8.5-2
			c-3.3,0.4-6,1.6-8,3.8c-2.1,2.1-3,5.1-2.8,8.8l23.4-2.6C372.3,36.9,370.9,34.2,368.5,32.5z"/>
		<path class="st0" d="M440.3,25.2c3.2,3.6,4.7,8.5,4.4,14.7l-1,26.4l-12.3-0.5l1-25.1c0.1-3.6-0.7-6.4-2.7-8.5
			c-1.9-2.1-4.6-3.2-8-3.3c-3.5-0.1-6.3,0.8-8.5,2.9c-2.2,2-3.4,5.1-3.5,9.1L408.8,65l-12.3-0.5l1.8-45.4l12.3,0.5l-0.4,9.1
			c1.4-3,3.6-5.3,6.6-6.9c3-1.6,6.4-2.3,10.3-2.2C432.7,19.7,437.1,21.6,440.3,25.2z"/>
		<path class="st0" d="M498.8,34c3.5,3.9,5.3,8.6,5.3,14.2l-12.8-2.4c-0.1-2.5-0.9-4.5-2.5-6.3c-1.6-1.7-3.8-2.8-6.6-3.4
			c-3.2-0.6-6.1,0-8.7,1.8s-4.3,4.9-5.1,9.2c-0.8,4.3-0.3,7.8,1.4,10.4c1.7,2.6,4.2,4.3,7.4,4.9c2.8,0.5,5.3,0.3,7.4-0.7
			s3.6-2.7,4.6-4.9l12.8,2.4c-2,5.2-5.4,8.9-10.1,11.3c-4.7,2.3-10.1,2.9-16.2,1.8c-4.6-0.9-8.6-2.6-11.9-5.1s-5.6-5.7-6.9-9.5
			c-1.4-3.8-1.6-8.1-0.7-12.7c0.9-4.7,2.6-8.6,5.3-11.6c2.7-3.1,6-5.2,9.9-6.3c4-1.1,8.3-1.3,12.9-0.4
			C490.5,27.6,495.3,30.1,498.8,34z"/>
		<path class="st0" d="M556.8,73.5l-33.7-11.4c-1.1,3.9-1,7.1,0.4,9.6s3.7,4.3,6.7,5.3c2.7,0.9,5.2,1.1,7.4,0.4
			c2.2-0.6,3.9-1.9,5.2-3.9l12.4,4.2c-1.6,2.8-3.8,5-6.6,6.7s-6,2.7-9.6,3s-7.3-0.2-11.1-1.5c-4.5-1.5-8.2-3.8-11-6.7
			c-2.9-3-4.7-6.4-5.5-10.4s-0.4-8.2,1.1-12.7c1.5-4.5,3.8-8.1,6.9-10.8c3.1-2.7,6.6-4.3,10.7-4.9c4.1-0.6,8.4-0.1,12.8,1.4
			c4.5,1.5,8.2,3.8,11,6.7s4.6,6.2,5.4,9.9c0.8,3.7,0.5,7.5-0.8,11.5C558.1,71,557.5,72.2,556.8,73.5z M546.8,55.9
			c-1.5-2.5-3.8-4.3-6.9-5.4c-3.2-1.1-6.1-1.1-8.9,0c-2.8,1.1-4.9,3.3-6.3,6.8l22.3,7.6C548.4,61.4,548.3,58.4,546.8,55.9z"/>
	</g>
</g>
<g>
	<path class="st0" d="M224,747.5c1.7,5,1.4,10-0.8,15.1l-10.8-7.3c0.9-2.3,1-4.5,0.2-6.7s-2.3-4.1-4.7-5.7c-2.7-1.8-5.6-2.4-8.7-1.8
		c-3.1,0.6-5.9,2.8-8.3,6.4c-2.5,3.6-3.4,7-2.9,10.1s2.2,5.6,4.9,7.4c2.4,1.6,4.7,2.4,7,2.2c2.3-0.1,4.4-1,6.2-2.7l10.8,7.3
		c-3.9,3.9-8.5,6-13.8,6.3c-5.2,0.3-10.4-1.3-15.6-4.8c-3.9-2.7-6.9-5.8-8.9-9.4c-2-3.6-2.9-7.5-2.6-11.5c0.3-4,1.7-8,4.4-12
		c2.7-3.9,5.8-6.8,9.5-8.6s7.5-2.4,11.6-1.9s8.1,2.1,12,4.8C218.8,738.3,222.3,742.5,224,747.5z"/>
	<path class="st0" d="M268.3,767.9c2.6,3.3,4.1,7,4.6,11.1c0.4,4.1-0.3,8.3-2.4,12.6c-2,4.3-4.8,7.6-8.2,9.8
		c-3.4,2.2-7.3,3.4-11.5,3.5s-8.5-0.9-12.7-2.9c-4.3-2-7.7-4.7-10.3-8s-4.1-7-4.6-11.1s0.3-8.3,2.4-12.6c2-4.3,4.8-7.6,8.2-9.8
		c3.5-2.3,7.3-3.4,11.5-3.5s8.4,0.9,12.7,2.9C262.2,762,265.7,764.6,268.3,767.9z M244.3,768.3c-3.1,1-5.6,3.5-7.5,7.4
		c-1.8,3.9-2.2,7.4-1,10.5s3.4,5.3,6.5,6.8s6.2,1.7,9.4,0.7c3.1-1,5.6-3.5,7.5-7.4c1.8-3.9,2.2-7.4,1-10.5s-3.4-5.3-6.5-6.8
		S247.4,767.3,244.3,768.3z"/>
	<path class="st0" d="M356.3,796c2.5,4.1,3.1,9.2,1.6,15.3l-6.1,25.7l-11.9-2.9l5.8-24.4c0.8-3.4,0.5-6.2-0.9-8.5s-3.7-3.8-7-4.6
		c-3.4-0.8-6.3-0.5-8.7,1c-2.5,1.5-4.1,4.1-5,7.9l-5.6,23.4l-11.9-2.9l5.8-24.4c0.8-3.4,0.5-6.2-0.9-8.5s-3.7-3.8-7-4.6
		c-3.4-0.8-6.3-0.5-8.7,1c-2.5,1.5-4.1,4.1-5,7.9l-5.6,23.4l-12-2.9l10.6-44.2l12,2.9l-2,8.4c1.9-2.6,4.4-4.3,7.5-5.2s6.4-1,10-0.1
		c3.8,0.9,6.9,2.6,9.3,4.9c2.4,2.4,3.9,5.3,4.6,8.9c2.2-2.7,5-4.6,8.3-5.6c3.4-1.1,6.8-1.2,10.5-0.3
		C349.6,789.1,353.8,791.9,356.3,796z"/>
	<path class="st1" d="M389.6,804.7c1.1-1.8,2.6-3.2,4.5-4.2s4-1.5,6.2-1.5c2.3,0,4.3,0.5,6.2,1.5c1.9,1,3.3,2.4,4.4,4.2
		s1.6,3.7,1.6,5.9c0,2.1-0.5,4-1.6,5.7c-1.1,1.8-2.6,3.1-4.4,4.1c-1.9,1-3.9,1.5-6.2,1.5c-2.2,0-4.3-0.5-6.2-1.5
		c-1.9-1-3.4-2.4-4.5-4.1c-1.1-1.7-1.6-3.7-1.6-5.7C387.9,808.5,388.5,806.5,389.6,804.7z"/>
	<path class="st0" d="M506.7,777.1l-3.2,47.1l-13.4,2.9L473,797l-3.5,34.5l-13.4,2.9l-22.2-41.7l12.1-2.6l15.1,32.7l3.2-36.6
		l12.8-2.7l18,32l0.4-36L506.7,777.1z"/>
	<path class="st0" d="M559.6,781.1l-32.9,13.5c1.7,3.7,3.9,6,6.6,6.9c2.7,1,5.6,0.8,8.5-0.4c2.6-1.1,4.6-2.6,5.9-4.5
		c1.3-1.9,1.7-4,1.3-6.3l12.1-5c0.6,3.2,0.4,6.3-0.6,9.5c-1,3.1-2.7,6-5.3,8.5c-2.5,2.6-5.6,4.6-9.4,6.1c-4.4,1.8-8.6,2.5-12.7,2.2
		c-4.1-0.3-7.8-1.8-11-4.2c-3.2-2.5-5.7-5.9-7.5-10.3c-1.8-4.4-2.4-8.6-1.9-12.7c0.6-4,2.2-7.6,4.9-10.7c2.7-3.1,6.2-5.6,10.6-7.4
		c4.4-1.8,8.7-2.5,12.7-2.2c4,0.4,7.6,1.7,10.6,3.9c3,2.3,5.4,5.3,6.9,9.2C559,778.3,559.3,779.6,559.6,781.1z M540.5,774.3
		c-2.8-0.9-5.7-0.8-8.7,0.5c-3.1,1.3-5.3,3.2-6.7,5.8s-1.5,5.7-0.3,9.2l21.8-8.9C545.3,777.4,543.3,775.2,540.5,774.3z"/>
	<path class="st0" d="M590.7,736.7c3.8-0.1,7.3,0.9,10.7,3s6.3,5.1,8.8,9.2c2.5,4.1,3.8,8.1,4.1,12.1c0.2,4-0.5,7.6-2.4,10.9
		c-1.8,3.3-4.5,6-8,8.1s-7,3.1-10.4,3.1c-3.4-0.1-6.4-1.1-9.1-3.1l4.9,8.1l-10.6,6.4l-31.3-51.9L558,736l12.7,21.1
		c-0.5-3.3,0-6.4,1.5-9.4s4.1-5.6,7.6-7.7C583.3,737.9,587,736.8,590.7,736.7z M575.7,758.4c-0.8,3.3-0.2,6.7,1.9,10.1
		c2.1,3.4,4.7,5.5,8,6.3s6.6,0.2,9.8-1.7c3.3-2,5.4-4.6,6.1-7.8c0.8-3.2,0.1-6.5-2-10.1c-2.1-3.5-4.8-5.7-8-6.5s-6.5-0.2-9.8,1.8
		C578.6,752.5,576.5,755.1,575.7,758.4z"/>
	<path class="st1" d="M626.8,722c-0.4-2-0.2-4.1,0.6-6.1s2-3.8,3.6-5.2c1.7-1.5,3.6-2.5,5.7-3c2.1-0.5,4.1-0.4,6.1,0.2
		c2,0.6,3.7,1.7,5.1,3.3c1.4,1.6,2.2,3.3,2.6,5.4c0.3,2,0.2,4-0.6,6c-0.7,2-1.9,3.7-3.6,5.3c-1.7,1.5-3.5,2.5-5.6,3
		s-4.1,0.5-6.1-0.1s-3.6-1.7-5-3.2C628.1,725.8,627.2,724,626.8,722z"/>
	<path class="st0" d="M681.4,648.6c3.5-1.4,7.2-1.8,11.1-1.1c3.9,0.7,7.7,2.6,11.5,5.5c3.7,2.9,6.4,6.2,8.1,9.8
		c1.6,3.6,2.2,7.3,1.6,11c-0.6,3.7-2.1,7.2-4.6,10.4s-5.4,5.4-8.6,6.5c-3.2,1.1-6.4,1.3-9.6,0.3l24.5,19.2l-7.6,9.7L655,678.8
		l7.6-9.7l7.4,5.8c-1.7-2.9-2.3-6-1.9-9.4c0.4-3.4,1.8-6.7,4.3-9.9C674.9,652.4,677.9,650.1,681.4,648.6z M675.1,674.3
		c0.4,3.4,2.2,6.3,5.3,8.8s6.4,3.5,9.8,3c3.4-0.4,6.2-2.1,8.5-5.1c2.4-3,3.4-6.2,3-9.5s-2.2-6.2-5.4-8.7s-6.5-3.6-9.8-3.2
		c-3.3,0.4-6.1,2.1-8.5,5.1C675.7,667.8,674.7,670.9,675.1,674.3z"/>
	<path class="st0" d="M700.2,617.9c0.1-3.4,1.1-6.7,3-9.9l10.6,6.3l-1.8,3.1c-4.6,7.8-3.6,13.7,3.2,17.7l18.8,11.2l-6.3,10.6
		l-39-23.2l6.3-10.6l7.5,4.4C700.9,624.5,700.1,621.3,700.2,617.9z"/>
	<path class="st0" d="M690.3,595.3c-0.4-1.8-0.2-3.7,0.9-5.7c1-2,2.3-3.4,4-4.2c1.7-0.7,3.3-0.7,5,0.1c1.6,0.8,2.6,2.1,3.1,3.9
		c0.4,1.8,0.2,3.7-0.9,5.7c-1,2-2.3,3.4-4,4.2c-1.7,0.7-3.3,0.7-4.9-0.1C691.8,598.4,690.7,597.1,690.3,595.3z M711.2,592.6l40.8,20
		l-5.4,11.1l-40.8-20L711.2,592.6z"/>
	<path class="st0" d="M734.2,546.9c4.4-1.9,9.5-1.8,15.3,0.3l24.8,9.1l-4.2,11.5l-23.6-8.6c-3.4-1.2-6.4-1.3-8.9-0.1
		c-2.6,1.2-4.4,3.4-5.6,6.6c-1.2,3.3-1.2,6.3,0.1,9s3.8,4.7,7.5,6.1l22.6,8.3l-4.2,11.6l-42.7-15.6l4.2-11.6l8.5,3.1
		c-2.4-2.3-4-5.1-4.6-8.4c-0.6-3.4-0.2-6.9,1.1-10.5C726.6,552.4,729.8,548.8,734.2,546.9z"/>
	<path class="st0" d="M773.6,515.4l9.7,2.2l-1.5,6.3c-1.2,5.3-3.4,9.1-6.4,11.3c-3,2.3-7.4,2.8-13,1.5l-19.2-4.4l-1.5,6.6l-9.5-2.2
		l1.5-6.6l-10.9-2.5l2.8-12l10.9,2.5l2.4-10.6l9.5,2.2l-2.4,10.6l19.3,4.5c2.1,0.5,3.7,0.4,4.8-0.3s1.8-2.2,2.3-4.3L773.6,515.4z"/>
</g>
<path class="st0" d="M774.3,414.8c-1.1-169.2-133.6-273.6-134.9-274.6l8.4-10.8c1.4,1.1,139,109.4,140.2,285.4H774.3z"/>
<path class="st0" d="M99.3,669.4C98.2,668-14.8,534.2,19.5,361.6l13.4,2.7c-33,165.9,75.7,294.9,76.8,296.2L99.3,669.4z"/>
<g>
	<path class="st0" d="M362.8,400.7h-1l0,0h-72.5c-21.9,0-42.6-8.5-58.1-24.1s-24.1-36.1-24.1-58.1c0-21.9,8.5-42.6,24.1-58.1
		c15.5-15.5,36.1-24.1,58.1-24.1c22.6,0,43.2,9.2,58,24.1c14.9,14.9,24.1,35.4,24.1,58V337l59.4-1.4v-17
		c0-78.1-63.5-141.6-141.6-141.6c-37.8,0-73.4,14.7-100.1,41.5c-26.7,26.7-41.5,62.3-41.5,100.1s14.7,73.4,41.5,100.1
		c26.7,26.7,62.3,41.5,100.1,41.5h80.3v80.3c0,37.8,14.7,73.4,41.5,100.1c26.7,26.7,62.3,41.5,100.1,41.5l0,0
		c78.1,0,141.6-63.5,141.6-141.6s-63.5-141.6-141.6-141.6h-74.6l-65.2,1.6L362.8,400.7z M511.1,622.5c-45.3,0-82.1-36.8-82.1-82.1
		v-82.1h82.1c45.3,0,82.1,36.8,82.1,82.1C593.3,585.7,556.4,622.5,511.1,622.5z"/>
	<g>
		<g>
			
				<linearGradient id="SVGID_1_" gradientUnits="userSpaceOnUse" x1="680.5416" y1="-3188.729" x2="929.8787" y2="-3188.729" gradientTransform="matrix(0.7071 0.7071 0.7071 -0.7071 2202.533 -2277.7546)">
				<stop  offset="0" style="stop-color:#704394"/>
				<stop  offset="0.4798" style="stop-color:#E62D2B"/>
				<stop  offset="1" style="stop-color:#F8AF48"/>
			</linearGradient>
			<path class="st2" d="M532.3,664.8c56.9,0,103.3-46.3,103.3-103.3c0-56.9-46.3-103.3-103.3-103.3H429h82.1
				c45.3,0,82.1,36.8,82.1,82.1s-36.8,82.1-82.1,82.1S429,585.6,429,540.3v21.1C429,618.5,475.3,664.8,532.3,664.8z"/>
			
				<linearGradient id="SVGID_00000178906703153720886540000011196050348346932356_" gradientUnits="userSpaceOnUse" x1="-811.2451" y1="-3188.6492" x2="-620.0328" y2="-3188.6492" gradientTransform="matrix(-0.7071 -0.7071 0.7071 -0.7071 2011.4623 -2468.825)">
				<stop  offset="0" style="stop-color:#FFFFFF"/>
				<stop  offset="0.5202" style="stop-color:#E62D2B"/>
				<stop  offset="1" style="stop-color:#1D1D1B"/>
			</linearGradient>
			<path style="opacity:0.5;fill:url(#SVGID_00000178906703153720886540000011196050348346932356_);enable-background:new    ;" d="
				M371.4,318.5c0-45.3-36.8-82.1-82.1-82.1s-82.1,36.8-82.1,82.1s36.8,82.1,82.1,82.1h-21.1c-56.9,0-103.3-46.3-103.3-103.3
				c0-56.9,46.3-103.3,103.3-103.3c56.9,0,103.3,46.3,103.3,103.3"/>
			
				<linearGradient id="SVGID_00000084494780456228359550000012226083603083715493_" gradientUnits="userSpaceOnUse" x1="680.5416" y1="-3188.729" x2="929.8787" y2="-3188.729" gradientTransform="matrix(0.7071 0.7071 0.7071 -0.7071 2202.533 -2277.7546)">
				<stop  offset="0" style="stop-color:#FFFFFF"/>
				<stop  offset="0.5202" style="stop-color:#E62D2B"/>
				<stop  offset="0.6035" style="stop-color:#E32D2B"/>
				<stop  offset="0.6723" style="stop-color:#D82C2A"/>
				<stop  offset="0.7361" style="stop-color:#C72B29"/>
				<stop  offset="0.7968" style="stop-color:#AF2927"/>
				<stop  offset="0.8553" style="stop-color:#902624"/>
				<stop  offset="0.9121" style="stop-color:#692321"/>
				<stop  offset="0.9667" style="stop-color:#3C1F1D"/>
				<stop  offset="1" style="stop-color:#1D1D1B"/>
			</linearGradient>
			<path style="opacity:0.7;fill:url(#SVGID_00000084494780456228359550000012226083603083715493_);enable-background:new    ;" d="
				M532.3,664.8c56.9,0,103.3-46.3,103.3-103.3c0-56.9-46.3-103.3-103.3-103.3H429h82.1c45.3,0,82.1,36.8,82.1,82.1
				s-36.8,82.1-82.1,82.1S429,585.6,429,540.3v21.1C429,618.5,475.3,664.8,532.3,664.8z"/>
			
				<linearGradient id="SVGID_00000032631359283739581400000017246301841256421251_" gradientUnits="userSpaceOnUse" x1="4102.4663" y1="5243.3931" x2="4129.7886" y2="5270.7153" gradientTransform="matrix(-0.7071 0.7071 0.7071 0.7071 -407.3492 -6149.6953)">
				<stop  offset="0" style="stop-color:#000000;stop-opacity:0.7"/>
				<stop  offset="1" style="stop-color:#F8AF48;stop-opacity:0"/>
			</linearGradient>
			
				<polygon style="opacity:0.5;fill:url(#SVGID_00000032631359283739581400000017246301841256421251_);enable-background:new    ;" points="
				368.7,460.2 430.1,458.8 428.7,495.7 369.5,497.4 			"/>
			
				<linearGradient id="SVGID_00000085235144752701227000000005999710624008155572_" gradientUnits="userSpaceOnUse" x1="-2456.8691" y1="1629.9077" x2="-2428.8845" y2="1657.8925" gradientTransform="matrix(0.7071 -0.7071 -0.7071 -0.7071 3290.0598 -247.3947)">
				<stop  offset="0" style="stop-color:#000000;stop-opacity:0.7"/>
				<stop  offset="1" style="stop-color:#F8AF48;stop-opacity:0"/>
			</linearGradient>
			
				<polygon style="opacity:0.5;fill:url(#SVGID_00000085235144752701227000000005999710624008155572_);enable-background:new    ;" points="
				430.1,336 371.4,337.3 370.5,300.5 430.1,297.8 			"/>
		</g>
	</g>
</g>
</svg>
